<?xml version="1.0" encoding="UTF-8"?>
<svg width="600px" height="600px" viewBox="0 0 600 600" version="1.1" xmlns="http://www.w3.org/2000/svg" xmlns:xlink="http://www.w3.org/1999/xlink">
    <!-- Generator: Sketch 43.2 (39069) - http://www.bohemiancoding.com/sketch -->
    <title>volumeViewer</title>
    <desc>Created with Sketch.</desc>
    <defs></defs>
    <g id="Page-1" stroke="none" stroke-width="1" fill="none" fill-rule="evenodd">
        <g id="volumeViewer">
            <g id="Group-6" transform="translate(66.000000, 44.000000)">
                <path d="M73,111 L73,272.993985 C73,310.000385 103.000191,340 139.999095,340 L306.000905,340 C343.003484,340 373,310.003445 373,272.993985 L373,111" id="Path-7" stroke="#979797" stroke-width="4"></path>
                <circle id="Oval-5" stroke="#979797" stroke-width="4" fill="#FFFFFF" cx="73" cy="190" r="55"></circle>
                <circle id="Oval-5" stroke="#979797" stroke-width="4" fill="#FFFFFF" cx="223" cy="340" r="55"></circle>
                <circle id="Oval-5" stroke="#979797" stroke-width="4" fill="#FFFFFF" cx="373" cy="190" r="55"></circle>
                <g id="Group-3" transform="translate(188.000000, 308.000000)">
                    <path d="M23.6138572,53.2379636 C23.4105497,54.3307416 23.131006,55.4616228 22.7752178,56.6306412 C22.4194296,57.7996596 21.8857553,58.8606549 21.174179,59.813659 C20.4626026,60.7666631 19.5223193,61.5481147 18.3533009,62.1580373 C17.1842826,62.7679599 15.6976185,63.0729167 13.8932641,63.0729167 C11.5806408,63.0729167 9.70007427,62.5074761 8.25150804,61.3765779 C6.80294182,60.2456797 5.87536508,58.7145427 5.46875,56.7831211 L11.3392259,54.8771224 C11.4408796,55.5632854 11.7077168,56.1477858 12.1397453,56.6306412 C12.5717738,57.1134966 13.1435677,57.3549207 13.8551441,57.3549207 C14.9733356,57.3549207 15.773847,56.9610182 16.2567024,56.1732015 C16.7395578,55.3853848 17.0826341,54.3942754 17.2859417,53.1998436 L20.4117795,35.3596962 L26.815935,35.3596962 L23.6138572,53.2379636 Z M44.7704424,41.9163315 C44.2621735,41.2301686 43.626847,40.7092008 42.8644437,40.3534126 C42.1020404,39.9976244 41.2507029,39.819733 40.3104055,39.819733 C39.878377,39.819733 39.4209419,39.8769124 38.9380865,39.9912729 C38.4552311,40.1056334 38.0168557,40.2962314 37.6229474,40.5630725 C37.229039,40.8299136 36.8986692,41.1666367 36.6318281,41.5732518 C36.3649869,41.9798669 36.2315684,42.4754216 36.2315684,43.0599307 C36.2315684,43.822334 36.5301718,44.4258942 37.1273877,44.8706295 C37.7246036,45.3153647 38.5568814,45.728327 39.624246,46.1095286 C40.7932643,46.5161437 41.8351998,46.9672255 42.7500838,47.4627876 C43.6649677,47.9583498 44.4400661,48.5237904 45.0754021,49.1591265 C45.7107382,49.7944625 46.1935864,50.5123815 46.5239611,51.3129049 C46.8543359,52.1134284 47.0195208,53.0219453 47.0195208,54.038483 C47.0195208,55.6649433 46.6827977,57.0499552 46.0093415,58.1935601 C45.3358853,59.337165 44.4654879,60.271095 43.3981233,60.9953781 C42.3307587,61.7196612 41.1363449,62.2469823 39.8148458,62.577357 C38.4933468,62.9077318 37.1845742,63.0729167 35.8884886,63.0729167 C34.9227778,63.0729167 33.9570815,62.983971 32.9913706,62.8060769 C32.0256598,62.6281828 31.0980831,62.3676989 30.2086126,62.0246174 C29.3191421,61.6815359 28.4932176,61.2431606 27.7308143,60.7094783 C26.9684111,60.175796 26.320378,59.5658826 25.7866957,58.8797196 L30.4754524,55.0677223 C31.0091347,55.8809525 31.7969396,56.5416921 32.8388908,57.0499609 C33.8808419,57.5582298 34.9354839,57.8123604 36.0028485,57.8123604 C36.5619443,57.8123604 37.1019718,57.755181 37.6229474,57.6408205 C38.143923,57.52646 38.6077113,57.335862 39.0143264,57.0690209 C39.4209415,56.8021797 39.744958,56.4591034 39.9863857,56.0397816 C40.2278134,55.6204598 40.3485255,55.1185519 40.3485255,54.5340427 C40.3485255,53.5937453 39.9673295,52.8504133 39.2049263,52.3040242 C38.442523,51.7576352 37.4260005,51.2684338 36.1553284,50.8364053 C35.2658579,50.531444 34.4335802,50.1883676 33.6584702,49.807166 C32.8833602,49.4259644 32.2099141,48.9558227 31.6381116,48.396727 C31.0663091,47.8376313 30.608874,47.1705384 30.2657926,46.3954284 C29.9227111,45.6203184 29.7511729,44.6863884 29.7511729,43.5936104 C29.7511729,42.2212845 30.0370699,40.9823977 30.6088723,39.876913 C31.1806748,38.7714282 31.9621264,37.831145 32.9532507,37.056035 C33.9443749,36.280925 35.1006692,35.683718 36.4221682,35.2643962 C37.7436672,34.8450744 39.1540921,34.6354167 40.6534853,34.6354167 C41.441302,34.6354167 42.2418134,34.7116559 43.0550436,34.8641365 C43.8682737,35.0166172 44.6497254,35.2389814 45.3994219,35.531236 C46.1491185,35.8234906 46.8416244,36.1856267 47.4769605,36.6176553 C48.1122965,37.0496838 48.6459708,37.5452385 49.0779993,38.1043342 L44.7704424,41.9163315 Z" id="JS" fill="#8A8B8A"></path>
                    <rect id="Rectangle-134" fill="#1C4678" transform="translate(60.793810, 54.231310) rotate(-315.000000) translate(-60.793810, -54.231310) " x="54.4136022" y="47.8511022" width="12.7604167" height="12.7604167" rx="6.38020833"></rect>
                    <g id="Group">
                        <polygon id="Path-94" fill="#1C4678" points="1.74088542 -2.04046849e-16 9.20870492 31.3792007 17.4225268 31.3792007 29.9057755 5.34527079 22.1821128 5.34527079 14.550092 21.5211845 9.20870492 -2.04046849e-16"></polygon>
                        <polygon id="Path-95" fill="#1C4678" points="31.2313755 5.22949219 49.6340399 5.22949219 46.683562 11.2677899 40.3958523 11.2500215 36.8768464 31.1633976 30.1179791 31.1633966 33.6076374 11.2807744 28.4344618 11.2807745"></polygon>
                        <polygon id="Path-96" fill="#1C4678" points="50.446009 5.22949219 56.3055506 5.25349541 54.6962894 14.3635652 55.5667815 14.3635651 61.7122908 5.22949219 69.3595499 5.22949219 61.1774032 17.4078526 65.9909005 37.1181309 58.3567169 37.1181309 54.4732786 20.9198381 53.6362013 20.9198381 51.7676086 31.177455 44.1024306 31.1774557 47.6621279 11.1095532"></polygon>
                        <polygon id="Path-99" fill="#8A8B8A" points="0 0 1.16017603 0 8.76678838 31.3338945 7.60497451 31.3338945"></polygon>
                        <polygon id="Path-100" fill="#8A8B8A" points="20.0890973 5.22949219 21.1056775 5.22949219 14.8555005 18.2857795 14.5073785 16.8762569"></polygon>
                        <polygon id="Path-101" fill="#8A8B8A" points="31.211389 12.2021484 32.2625142 12.2021484 28.9239062 31.1955243 27.8541667 31.1955243"></polygon>
                        <polygon id="Path-102" fill="#8A8B8A" points="45.1300112 12.2021484 46.196106 12.2021484 42.8468241 31.1773397 41.78125 31.1773397"></polygon>
                        <polygon id="Path-103" fill="#8A8B8A" points="59.565763 5.22949219 60.8760664 5.22949219 56.2886285 12.1035226 56.7686678 9.35248652"></polygon>
                        <polygon id="Path-104" fill="#8A8B8A" points="53.9225813 23.2421875 57.1735695 36.9551105 55.9664756 36.9551109 53.3871528 26.3558486"></polygon>
                    </g>
                </g>
                <g id="Group-4" transform="translate(49.000000, 162.000000)" stroke="#979797">
                    <g id="Group" stroke-width="4">
                        <polygon id="Path-8" points="0 -7.10542736e-15 0 55.037004 49 55.037004 49 11.9239049 40.7817594 -3.94430453e-30"></polygon>
                        <path d="M5,33.7716462 L15.0671841,29.1958888 C16.5202953,28.5354177 18.8666818,28.5481859 20.3071543,29.2240177 L27.3911205,32.5476285 C28.8319649,33.2236348 31.1974706,33.2993282 32.6838972,32.7130373 L41.9489907,29.0586089" id="Path-9"></path>
                        <path d="M5,45.7716462 L15.0671841,41.1958888 C16.5202953,40.5354177 18.8666818,40.5481859 20.3071543,41.2240177 L27.3911205,44.5476285 C28.8319649,45.2236348 31.1974706,45.2993282 32.6838972,44.7130373 L41.9489907,41.0586089" id="Path-9"></path>
                        <path d="M5,21.7716462 L15.0671841,17.1958888 C16.5202953,16.5354177 18.8666818,16.5481859 20.3071543,17.2240177 L27.3911205,20.5476285 C28.8319649,21.2236348 31.1974706,21.2993282 32.6838972,20.7130373 L41.9489907,17.0586089" id="Path-9"></path>
                    </g>
                    <polygon id="Path-10" stroke-width="3" points="40.2845771 1.44738977 40.2845771 11.5954146 47.8527734 11.5954146"></polygon>
                </g>
                <g id="Group-5" transform="translate(343.000000, 160.000000)" stroke-width="4" stroke="#979797">
                    <polygon id="Path-11" points="0 20 40 20 40 60 0 60"></polygon>
                    <polyline id="Path-12" points="0 20 20 0 60 0 60 40 40 60"></polyline>
                    <path d="M40,20 L60,7.10542736e-15" id="Path-13"></path>
                </g>
                <text id="Geometry-Viewer" font-family="ArialRoundedMTBold, Arial Rounded MT Bold" font-size="45" font-weight="normal" fill="#9B9B9B">
                    <tspan x="304.92749" y="43">Tubes</tspan>
                    <tspan x="297.425049" y="95">Viewer</tspan>
                </text>
                <text id="Drop-vtp-file" font-family="ArialRoundedMTBold, Arial Rounded MT Bold" font-size="45" font-weight="normal" fill="#9B9B9B">
                    <tspan x="20.1943359" y="46">Drop</tspan>
                    <tspan x="0.320068359" y="98">vtp file</tspan>
                </text>
            </g>
            <g id="Kitware_Pepperv2-217" opacity="0.450124547" transform="translate(26.000000, 439.000000)">
                <g id="Logo" transform="translate(0.945347, 0.529412)">
                    <path d="M79.9332939,129.656059 L74.8165081,129.656059 C24.4893589,116.172412 23.4879261,46.2671176 71.8138582,32.7851176 L82.9359439,32.7851176 C32.6087947,46.2671176 31.6073619,116.172412 79.9332939,129.656059" id="Fill-1" fill="#004B86"></path>
                    <path d="M91.3029767,133.7994 L86.1861908,133.7994 C35.8590417,120.319047 34.8567846,50.4121059 83.1843651,36.9301059 L94.3056266,36.9301059 C43.9784774,50.4121059 42.9770446,120.319047 91.3029767,133.7994" id="Fill-3" fill="#004B86"></path>
                    <path d="M102.669857,137.942824 L97.5530712,137.942824 C47.225922,124.457529 46.223665,54.5555294 94.5504213,41.0718824 L105.673331,41.0718824 C55.3453578,54.5555294 54.343925,124.457529 102.669857,137.942824" id="Fill-5" fill="#004B86"></path>
                    <path d="M15.6047131,135.216447 C14.7508165,134.399506 13.8960957,133.585859 13.0421991,132.766447 C22.3732449,95.7735059 16.9803439,60.3057412 0.13814003,34.1677412 C3.25618139,31.1882118 6.37422275,28.2062118 9.49308833,25.2266824 C25.8696053,57.8680941 28.4238771,97.4320941 15.6047131,135.216447" id="Fill-7" fill="#009D49"></path>
                    <path d="M19.1925625,138.644059 C18.3386659,137.830412 17.4855935,137.014294 16.6316969,136.195706 C30.8495699,98.0967647 29.4319037,56.8906471 13.2383645,21.6444118 C16.3572301,18.6640588 19.473623,15.6853529 22.590016,12.7058235 C38.3162198,54.4538235 36.8969052,99.7545294 19.1925625,138.644059" id="Fill-9" fill="#009D49"></path>
                    <path d="M22.77967,142.074882 C21.9233007,141.254647 21.0702284,140.439353 20.2155075,139.620765 C39.3127897,100.420765 41.8662372,53.4804118 26.3263081,9.13417647 C29.4451737,6.15217647 32.5640393,3.17182353 35.6829049,0.188176471 C50.7596198,51.0402941 45.367543,102.079353 22.77967,142.074882" id="Fill-11" fill="#009D49"></path>
                </g>
                <g id="Kitware" transform="translate(114.688331, 40.882353)" fill="#004B86">
                    <polygon id="Fill-18" points="35.6633708 5.52061176 28.5082777 38.7170824 28.7505997 38.7170824 62.3377489 5.52061176 85.9839261 5.52061176 43.1835953 44.0477882 70.4646027 90.0830824 50.2134062 90.0830824 26.68839 47.0742588 17.4727356 90.0830824 0.498655835 90.0830824 18.6868183 5.52061176"></polygon>
                    <path d="M98.2291826,0.794952941 L114.478769,0.794952941 L111.082964,16.3044824 L94.8317291,16.3044824 L98.2291826,0.794952941 Z M92.287348,27.6906 L108.53611,27.6906 L95.1960363,90.0828353 L78.9497468,90.0828353 L92.287348,27.6906 Z" id="Fill-19"></path>
                    <path d="M117.872596,27.6907647 L129.631807,27.6907647 L132.423456,14.8494706 L149.880531,9.15476471 L145.880569,27.6907647 L160.433077,27.6907647 L157.884575,39.5644118 L143.33454,39.5644118 L137.391057,66.8248824 C137.031695,68.2759412 136.664915,70.4566471 136.664915,72.8778235 C136.664915,76.6397059 139.214241,78.9414706 142.852368,78.9414706 C145.758584,78.9414706 148.668921,78.3304118 150.733603,77.4854706 L147.942779,90.083 C145.1569,90.6932353 141.999296,91.5340588 139.214241,91.5340588 C128.177875,91.5340588 120.418625,87.1784118 120.418625,75.1837059 C120.418625,70.3413529 121.388738,65.6118235 122.478362,60.6467647 L127.086602,39.5644118 L115.328215,39.5644118 L117.872596,27.6907647 Z" id="Fill-20"></path>
                    <polygon id="Fill-22" points="167.246777 27.6907647 183.495539 27.6907647 187.982617 74.5775882 188.220818 74.5775882 211.140029 27.6907647 229.211152 27.6907647 232.60366 74.5775882 232.84763 74.5775882 256.857291 27.6907647 273.467063 27.6907647 238.78452 90.083 220.47602 90.083 216.956582 42.3504118 216.715084 42.3504118 193.927749 90.083 175.491495 90.083"></polygon>
                    <path d="M289.500785,79.6684 C301.630073,79.6684 305.383592,71.3079294 307.934567,61.2485176 L302.237527,61.2485176 C294.355468,61.2485176 281.259364,62.5851059 281.259364,73.1271059 C281.259364,77.4860471 285.38296,79.6684 289.500785,79.6684 L289.500785,79.6684 Z M305.383592,80.5174588 L305.148688,80.5174588 C299.566215,87.5421647 293.994457,91.5338118 285.021125,91.5338118 C273.745734,91.5338118 265.739217,85.2404 265.739217,73.7282824 C265.739217,53.1318118 288.772995,51.5588706 304.05659,51.5588706 L309.754454,51.5588706 C310.238274,49.8640471 310.238274,48.0432235 310.238274,46.2281647 C310.238274,39.9265176 303.44584,38.1122824 297.750448,38.1122824 C290.593707,38.1122824 283.680936,39.9265176 277.259403,42.9554588 L279.560638,29.9947529 C286.470936,27.5702824 293.504868,26.2378118 300.779474,26.2378118 C313.270596,26.2378118 325.033929,30.8429882 325.033929,45.5026353 C325.033929,53.8565176 318.85142,78.3301647 317.39584,90.0835765 L303.694756,90.0835765 L305.383592,80.5174588 Z" id="Fill-24"></path>
                    <path d="M341.342447,36.0515647 C341.832861,33.3882706 342.319153,30.6006235 342.802973,27.6910941 L358.318999,27.6910941 L356.134804,39.4428588 L356.379599,39.4428588 C359.288287,32.6578 367.292332,26.2375647 374.807611,26.2375647 C376.87559,26.2375647 379.053191,26.3586235 380.991768,26.8445059 L377.601732,42.7139176 C375.779372,42.1094471 373.473191,41.7446235 371.417575,41.7446235 C359.895741,41.7446235 354.320686,52.0428588 352.253531,62.0973294 L346.438627,90.0833294 L330.190689,90.0833294 L341.342447,36.0515647 Z" id="Fill-26"></path>
                    <path d="M422.701649,52.7682235 C422.948917,51.3155176 423.066781,49.9838706 423.066781,48.5295176 C423.066781,41.8663412 419.556409,38.1118706 412.759029,38.1118706 C402.69772,38.1118706 398.330155,44.1672824 395.180793,52.7682235 L422.701649,52.7682235 Z M392.998246,63.9171647 C392.998246,75.4268118 399.180754,79.6679882 410.339106,79.6679882 C417.003785,79.6679882 423.432736,77.9665765 429.498205,75.1838706 L427.429401,88.0243412 C421.124908,89.9612824 414.217082,91.5342235 407.546633,91.5342235 C389.607386,91.5342235 377.474801,82.8196353 377.474801,64.2803412 C377.474801,44.8944588 392.509481,26.2374 413.002175,26.2374 C428.403635,26.2374 438.591874,34.1136353 438.591874,49.9838706 C438.591874,54.7076353 437.980299,59.3103412 437.016781,63.9171647 L392.998246,63.9171647 Z" id="Fill-28"></path>
                </g>
            </g>
        </g>
    </g>
</svg>
