<?xml version="1.0" encoding="UTF-8"?>
<svg width="600px" height="600px" viewBox="0 0 600 600" version="1.1" xmlns="http://www.w3.org/2000/svg" xmlns:xlink="http://www.w3.org/1999/xlink">
    <!-- Generator: Sketch 43.2 (39069) - http://www.bohemiancoding.com/sketch -->
    <title>dropOBJ</title>
    <desc>Created with Sketch.</desc>
    <defs></defs>
    <g id="Page-1" stroke="none" stroke-width="1" fill="none" fill-rule="evenodd">
        <g id="dropOBJ">
            <path d="M152,100 C152,100 152,129.992158 152,167.008916 L152,270.991084 C152,307.999086 182.000191,338 218.999095,338 L385.000905,338 C422.003484,338 452,308.007842 452,270.991084 L452,100" id="Path-7" stroke="#979797" stroke-width="6"></path>
            <path d="M300,326 C300,326 300.003721,326.677226 300.008196,327.49175 L300.991804,506.50825" id="Path-7" stroke="#979797" stroke-width="6"></path>
            <g id="ZIP" transform="translate(15.000000, 15.000000)">
                <circle id="Oval-5" stroke="#979797" stroke-width="6" fill="#FFFFFF" cx="130" cy="130" r="130"></circle>
                <g id="OBJ" transform="translate(19.923372, 110.574713)">
                    <circle id="Oval-5" stroke="#979797" stroke-width="4" fill="#FFFFFF" cx="54.789272" cy="54.789272" r="54.789272"></circle>
                    <g id="Group-4" transform="translate(30.881226, 18.927203)" stroke="#979797">
                        <g id="Group" stroke-width="4">
                            <polygon id="Path-8" points="0 -7.10542736e-15 0 54.8261343 48.8122605 54.8261343 48.8122605 11.8782194 40.6255075 -2.72238596e-17"></polygon>
                            <path d="M4.98084291,33.6422529 L15.0094554,29.0840272 C16.4569992,28.4260866 18.7943957,28.4388058 20.2293491,29.1120483 L27.2861737,32.4229249 C28.7214976,33.0963412 31.0779401,33.1717445 32.5586715,32.5877 L41.7882666,28.9472732" id="Path-9"></path>
                            <path d="M4.98084291,45.5962759 L15.0094554,41.0380502 C16.4569992,40.3801095 18.7943957,40.3928288 20.2293491,41.0660713 L27.2861737,44.3769479 C28.7214976,45.0503642 31.0779401,45.1257675 32.5586715,44.541723 L41.7882666,40.9012962" id="Path-9"></path>
                            <path d="M4.98084291,21.6882299 L15.0094554,17.1300042 C16.4569992,16.4720636 18.7943957,16.4847828 20.2293491,17.1580253 L27.2861737,20.4689019 C28.7214976,21.1423182 31.0779401,21.2177215 32.5586715,20.633677 L41.7882666,16.9932502" id="Path-9"></path>
                        </g>
                        <polygon id="Path-10" stroke-width="3" points="40.1302301 1.44184421 40.1302301 11.5509878 47.6694294 11.5509878"></polygon>
                    </g>
                    <text font-family="ArialRoundedMTBold, Arial Rounded MT Bold" font-size="24" font-weight="normal" fill="#9B9B9B">
                        <tspan x="29.7756002" y="97.7126437">OBJ</tspan>
                    </text>
                </g>
                <g id="MTL" transform="translate(129.501916, 110.574713)">
                    <circle id="Oval-5" stroke="#979797" stroke-width="4" fill="#FFFFFF" cx="54.789272" cy="54.789272" r="54.789272"></circle>
                    <g id="Group-4" transform="translate(30.881226, 18.927203)" stroke="#979797">
                        <g id="Group" stroke-width="4">
                            <polygon id="Path-8" points="0 -7.10542736e-15 0 54.8261343 48.8122605 54.8261343 48.8122605 11.8782194 40.6255075 -2.72238596e-17"></polygon>
                            <path d="M4.98084291,33.6422529 L15.0094554,29.0840272 C16.4569992,28.4260866 18.7943957,28.4388058 20.2293491,29.1120483 L27.2861737,32.4229249 C28.7214976,33.0963412 31.0779401,33.1717445 32.5586715,32.5877 L41.7882666,28.9472732" id="Path-9"></path>
                            <path d="M4.98084291,45.5962759 L15.0094554,41.0380502 C16.4569992,40.3801095 18.7943957,40.3928288 20.2293491,41.0660713 L27.2861737,44.3769479 C28.7214976,45.0503642 31.0779401,45.1257675 32.5586715,44.541723 L41.7882666,40.9012962" id="Path-9"></path>
                            <path d="M4.98084291,21.6882299 L15.0094554,17.1300042 C16.4569992,16.4720636 18.7943957,16.4847828 20.2293491,17.1580253 L27.2861737,20.4689019 C28.7214976,21.1423182 31.0779401,21.2177215 32.5586715,20.633677 L41.7882666,16.9932502" id="Path-9"></path>
                        </g>
                        <polygon id="Path-10" stroke-width="3" points="40.1302301 1.44184421 40.1302301 11.5509878 47.6694294 11.5509878"></polygon>
                    </g>
                    <text font-family="ArialRoundedMTBold, Arial Rounded MT Bold" font-size="24" font-weight="normal" fill="#9B9B9B">
                        <tspan x="30.5432157" y="97.7126437">MTL</tspan>
                    </text>
                </g>
                <text font-family="ArialRoundedMTBold, Arial Rounded MT Bold" font-size="36" font-weight="normal" fill="#9B9B9B">
                    <tspan x="100.088744" y="245">ZIP</tspan>
                </text>
                <g id="JPG" transform="translate(74.712644, 12.950192)">
                    <circle id="Oval-5" stroke="#979797" stroke-width="4" fill="#FFFFFF" cx="54.789272" cy="54.789272" r="54.789272"></circle>
                    <g id="Group-4" transform="translate(30.881226, 18.927203)" stroke="#979797">
                        <g id="Group" stroke-width="4">
                            <polygon id="Path-8" points="0 -7.10542736e-15 0 54.8261343 48.8122605 54.8261343 48.8122605 11.8782194 40.6255075 -2.72238596e-17"></polygon>
                            <path d="M4.98084291,33.6422529 L15.0094554,29.0840272 C16.4569992,28.4260866 18.7943957,28.4388058 20.2293491,29.1120483 L27.2861737,32.4229249 C28.7214976,33.0963412 31.0779401,33.1717445 32.5586715,32.5877 L41.7882666,28.9472732" id="Path-9"></path>
                            <path d="M4.98084291,45.5962759 L15.0094554,41.0380502 C16.4569992,40.3801095 18.7943957,40.3928288 20.2293491,41.0660713 L27.2861737,44.3769479 C28.7214976,45.0503642 31.0779401,45.1257675 32.5586715,44.541723 L41.7882666,40.9012962" id="Path-9"></path>
                            <path d="M4.98084291,21.6882299 L15.0094554,17.1300042 C16.4569992,16.4720636 18.7943957,16.4847828 20.2293491,17.1580253 L27.2861737,20.4689019 C28.7214976,21.1423182 31.0779401,21.2177215 32.5586715,20.633677 L41.7882666,16.9932502" id="Path-9"></path>
                        </g>
                        <polygon id="Path-10" stroke-width="3" points="40.1302301 1.44184421 40.1302301 11.5509878 47.6694294 11.5509878"></polygon>
                    </g>
                    <text id="MTL" font-family="ArialRoundedMTBold, Arial Rounded MT Bold" font-size="24" font-weight="normal" fill="#9B9B9B">
                        <tspan x="30.5432157" y="97.7126437">MTL</tspan>
                    </text>
                    <circle id="Oval-5" stroke="#979797" stroke-width="4" fill="#FFFFFF" cx="54.789272" cy="54.789272" r="54.789272"></circle>
                    <g id="Group-4" transform="translate(30.881226, 18.927203)" stroke="#979797">
                        <g id="Group" stroke-width="4">
                            <polygon id="Path-8" points="0 -7.10542736e-15 0 54.8261343 48.8122605 54.8261343 48.8122605 11.8782194 40.6255075 -2.72238596e-17"></polygon>
                            <path d="M4.98084291,33.6422529 L15.0094554,29.0840272 C16.4569992,28.4260866 18.7943957,28.4388058 20.2293491,29.1120483 L27.2861737,32.4229249 C28.7214976,33.0963412 31.0779401,33.1717445 32.5586715,32.5877 L41.7882666,28.9472732" id="Path-9"></path>
                            <path d="M4.98084291,45.5962759 L15.0094554,41.0380502 C16.4569992,40.3801095 18.7943957,40.3928288 20.2293491,41.0660713 L27.2861737,44.3769479 C28.7214976,45.0503642 31.0779401,45.1257675 32.5586715,44.541723 L41.7882666,40.9012962" id="Path-9"></path>
                            <path d="M4.98084291,21.6882299 L15.0094554,17.1300042 C16.4569992,16.4720636 18.7943957,16.4847828 20.2293491,17.1580253 L27.2861737,20.4689019 C28.7214976,21.1423182 31.0779401,21.2177215 32.5586715,20.633677 L41.7882666,16.9932502" id="Path-9"></path>
                        </g>
                        <polygon id="Path-10" stroke-width="3" points="40.1302301 1.44184421 40.1302301 11.5509878 47.6694294 11.5509878"></polygon>
                    </g>
                    <text font-family="ArialRoundedMTBold, Arial Rounded MT Bold" font-size="24" font-weight="normal" fill="#9B9B9B">
                        <tspan x="30.9006376" y="97.7126437">JPG</tspan>
                    </text>
                </g>
            </g>
            <g id="vtk-js" transform="translate(239.000000, 275.000000)">
                <circle id="Oval-5" stroke="#979797" stroke-width="6" fill="#FFFFFF" cx="62.5" cy="62.5" r="62.5"></circle>
                <g id="Group-3" transform="translate(22.727273, 26.136364)">
                    <path d="M26.8339287,60.4976859 C26.6028974,61.7394791 26.2852341,63.0245714 25.8809294,64.3530014 C25.4766246,65.6814313 24.8701765,66.8871078 24.061567,67.970067 C23.2529575,69.0530262 22.1844537,69.9410394 20.8560238,70.6341333 C19.5275938,71.3272272 17.8382028,71.6737689 15.7878001,71.6737689 C13.1598191,71.6737689 11.0228117,71.0312228 9.37671369,69.7461112 C7.7306157,68.4609996 6.67655123,66.7210713 6.21448864,64.526274 L12.8854839,62.3603664 C13.0009996,63.140097 13.3042236,63.804302 13.7951651,64.3530014 C14.2861066,64.9017007 14.9358724,65.1760462 15.7444819,65.1760462 C17.0151541,65.1760462 17.9248261,64.7284298 18.4735255,63.8331835 C19.0222248,62.9379373 19.4120843,61.8116766 19.6431156,60.4543677 L23.195204,40.1814729 L30.4726534,40.1814729 L26.8339287,60.4976859 Z M50.8755027,47.6321949 C50.2979244,46.8524643 49.5759625,46.2604555 48.7095951,45.8561507 C47.8432278,45.451846 46.8757987,45.2496966 45.807279,45.2496966 C45.3163375,45.2496966 44.7965249,45.3146732 44.2478255,45.4446283 C43.6991262,45.5745834 43.2009724,45.791172 42.7533493,46.0944006 C42.3057262,46.3976291 41.9303059,46.780269 41.6270774,47.2423316 C41.3238488,47.7043942 41.1722368,48.2675245 41.1722368,48.9317395 C41.1722368,49.7981068 41.5115589,50.4839707 42.1902133,50.9893517 C42.8688678,51.4947326 43.8146379,51.9640079 45.0275522,52.3971916 C46.3559822,52.8592542 47.5399998,53.3718472 48.5796407,53.934986 C49.6192815,54.4981247 50.5000751,55.1406709 51.2220479,55.8626437 C51.9440207,56.5846165 52.4927118,57.4004335 52.8681376,58.3101192 C53.2435635,59.219805 53.4312736,60.2522106 53.4312736,61.4073671 C53.4312736,63.2556174 53.0486338,64.8294945 52.2833426,66.1290456 C51.5180514,67.4285966 50.5289635,68.4898807 49.3160492,69.3129297 C48.1031349,70.1359787 46.7458464,70.7352071 45.244143,71.110633 C43.7424396,71.4860588 42.2551979,71.6737689 40.7823734,71.6737689 C39.6849748,71.6737689 38.5875926,71.5726943 37.4901939,71.3705419 C36.3927953,71.1683895 35.3387308,70.8723851 34.3279689,70.4825198 C33.3172069,70.0926545 32.3786564,69.5945007 31.512289,68.9880436 C30.6459217,68.3815864 29.9095205,67.6885029 29.3030633,66.9087723 L34.6311959,62.5769572 C35.2376531,63.5010823 36.1328859,64.2519228 37.3169213,64.829501 C38.5009567,65.4070793 39.6994136,65.6958641 40.9123279,65.6958641 C41.5476639,65.6958641 42.1613316,65.6308875 42.7533493,65.5009324 C43.345367,65.3709773 43.8723992,65.1543887 44.3344618,64.8511601 C44.7965244,64.5479315 45.164725,64.1580721 45.4390747,63.68157 C45.7134243,63.205068 45.8505971,62.634718 45.8505971,61.970503 C45.8505971,60.9019833 45.4174199,60.0572878 44.5510526,59.4363912 C43.6846852,58.8154946 42.5295461,58.2595839 41.0856005,57.7686424 C40.0748386,57.4220954 39.1290684,57.0322359 38.2482616,56.5990523 C37.3674547,56.1658686 36.6021751,55.6316167 35.9523995,54.9962807 C35.302624,54.3609446 34.7828114,53.6028845 34.3929461,52.7220777 C34.0030808,51.8412709 33.808151,50.7799868 33.808151,49.5381936 C33.808151,47.9787324 34.1330339,46.5709065 34.7828095,45.3146738 C35.432585,44.0584412 36.3205982,42.9899375 37.4468758,42.1091306 C38.5731533,41.2283238 39.8871241,40.5496796 41.3888275,40.0731775 C42.890531,39.5966755 44.4932865,39.358428 46.1971423,39.358428 C47.0923886,39.358428 48.0020607,39.4450635 48.9261859,39.6183369 C49.8503111,39.7916104 50.7383243,40.0442971 51.5902522,40.3764046 C52.4421801,40.7085121 53.2291186,41.1200304 53.9510914,41.6109719 C54.6730642,42.1019134 55.2795123,42.6650437 55.7704538,43.3003798 L50.8755027,47.6321949 Z" id="JS" fill="#8A8B8A"></path>
                    <rect id="Rectangle-134" fill="#1C4678" transform="translate(69.083876, 61.626489) rotate(-315.000000) translate(-69.083876, -61.626489) " x="61.8336388" y="54.3762524" width="14.5004735" height="14.5004735" rx="7.25023674"></rect>
                    <g id="Group">
                        <polygon id="Path-94" fill="#1C4678" points="1.97827888 -1.86453205e-16 10.4644374 35.6581826 19.7983259 35.6581826 33.9838358 6.07417135 25.2069464 6.07417135 16.5341954 24.4558915 10.4644374 -1.86453205e-16"></polygon>
                        <polygon id="Path-95" fill="#1C4678" points="35.4901994 5.94260476 56.402318 5.94260476 53.0495023 12.8043067 45.9043777 12.7841153 41.9055072 35.4129518 34.2249763 35.4129507 38.1904971 12.8190619 32.3118884 12.819062"></polygon>
                        <polygon id="Path-96" fill="#1C4678" points="57.3250103 5.94260476 63.9835802 5.96988114 62.1548743 16.3222332 63.1440698 16.322233 70.1276032 5.94260476 78.8176703 5.94260476 69.5197763 19.7816507 74.9896596 42.1796942 66.314451 42.1796942 61.901453 23.7725433 60.9502287 23.7725433 58.826828 35.4289261 50.1163984 35.4289269 54.161509 12.6244923"></polygon>
                        <polygon id="Path-99" fill="#8A8B8A" points="0 0 1.31838185 0 9.96225952 35.6066983 8.64201648 35.6066983"></polygon>
                        <polygon id="Path-100" fill="#8A8B8A" points="22.8285197 5.94260476 23.9837244 5.94260476 16.8812506 20.7792949 16.4856574 19.1775646"></polygon>
                        <polygon id="Path-101" fill="#8A8B8A" points="35.4674875 13.8660778 36.661948 13.8660778 32.8680752 35.4494594 31.6524621 35.4494594"></polygon>
                        <polygon id="Path-102" fill="#8A8B8A" points="51.2841036 13.8660778 52.495575 13.8660778 48.6895729 35.4287951 47.4786932 35.4287951"></polygon>
                        <polygon id="Path-103" fill="#8A8B8A" points="67.688367 5.94260476 69.1773481 5.94260476 63.9643505 13.7540029 64.5098498 10.6278256"></polygon>
                        <polygon id="Path-104" fill="#8A8B8A" points="61.2756606 26.4115767 64.9699653 41.9944437 63.5982678 41.9944442 60.6672191 29.9498279"></polygon>
                    </g>
                </g>
            </g>
            <g id="3D" transform="translate(239.000000, 416.000000)" stroke="#979797">
                <circle id="Oval-5" stroke-width="6" fill="#FFFFFF" cx="62.5" cy="62.5" r="62.5"></circle>
                <g id="Group-5" transform="translate(28.409091, 28.409091)" stroke-width="4">
                    <polygon id="Path-11" points="0 22.7272727 45.4545455 22.7272727 45.4545455 68.1818182 0 68.1818182"></polygon>
                    <polyline id="Path-12" points="0 22.7272727 22.7272727 0 68.1818182 0 68.1818182 45.4545455 45.4545455 68.1818182"></polyline>
                    <path d="M45.4545455,22.7272727 L68.1818182,7.10542736e-15" id="Path-13"></path>
                </g>
            </g>
            <text id="Viewer" font-family="ArialRoundedMTBold, Arial Rounded MT Bold" font-size="45" font-weight="normal" fill="#9B9B9B">
                <tspan x="225.925049" y="584">Viewer</tspan>
            </text>
            <g id="OBJ" transform="translate(329.000000, 15.000000)">
                <circle id="Oval-5" stroke="#979797" stroke-width="6" fill="#FFFFFF" cx="130" cy="130" r="130"></circle>
                <g id="Group-4" transform="translate(72.000000, 55.000000)" stroke="#979797">
                    <g id="Group">
                        <polygon id="Path-8" stroke-width="6" points="0 -7.10542736e-15 0 130.087464 115.818182 130.087464 115.818182 28.1837751 96.3932496 9.68921912e-15"></polygon>
                        <path d="M11.8181818,92.0511637 L35.6315493,81.2274626 C39.0561215,79.6709189 44.5939751,79.7048029 47.9987284,81.3022237 L64.7426484,89.158031 C68.1482806,90.7558641 73.7541728,90.9289788 77.2528479,89.5489973 L99.1521599,80.9112573" id="Path-9" stroke-width="6"></path>
                        <path d="M11.8181818,108.187527 L35.6315493,97.3638262 C39.0561215,95.8072825 44.5939751,95.8411666 47.9987284,97.4385873 L64.7426484,105.294395 C68.1482806,106.892228 73.7541728,107.065342 77.2528479,105.685361 L99.1521599,97.047621" id="Path-9" stroke-width="6"></path>
                        <path d="M11.8181818,59.7784365 L35.6315493,48.9547353 C39.0561215,47.3981916 44.5939751,47.4320757 47.9987284,49.0294964 L64.7426484,56.8853037 C68.1482806,58.4831368 73.7541728,58.6562516 77.2528479,57.27627 L99.1521599,48.6385301" id="Path-9" stroke-width="6"></path>
                        <path d="M12,75.9148001 L35.8133675,65.0910989 C39.2379397,63.5345552 44.7757933,63.5684393 48.1805466,65.16586 L64.9244666,73.0216673 C68.3300988,74.6195004 73.935991,74.7926152 77.434666,73.4126337 L99.333978,64.7748937" id="Path-9" stroke-width="6"></path>
                        <path d="M12,43.6420728 L35.8133675,32.8183717 C39.2379397,31.261828 44.7757933,31.295712 48.1805466,32.8931328 L64.9244666,40.7489401 C68.3300988,42.3467732 73.935991,42.5198879 77.434666,41.1399064 L99.333978,32.5021664" id="Path-9" stroke-width="6"></path>
                        <path d="M100.212218,6.43586047 C98.5586075,4.21857119 97.2180914,4.65613095 97.2180914,7.4202081 L97.2180914,24.4035465 C97.2180914,25.5102131 98.1051831,26.4073437 99.2180556,26.4073437 L110.099834,26.4073437 C112.86497,26.4073437 113.769329,24.6142867 112.112429,22.3925863 L100.212218,6.43586047 Z" id="Path-10" stroke-width="4"></path>
                    </g>
                </g>
                <text font-family="ArialRoundedMTBold, Arial Rounded MT Bold" font-size="36" font-weight="normal" fill="#9B9B9B">
                    <tspan x="92.7522195" y="224">OBJ</tspan>
                </text>
            </g>
            <g id="Logo" opacity="0.167515851" transform="translate(275.000000, 470.000000)">
                <path d="M22.5718499,36.3238932 L21.1269536,36.3238932 C6.91539291,32.5463716 6.63260473,12.962 20.2790546,9.18493992 L23.419749,9.18493992 C9.20818827,12.962 8.92540009,32.5463716 22.5718499,36.3238932" id="Fill-1" fill="#004B86"></path>
                <path d="M25.7824617,37.4846741 L24.3375653,37.4846741 C10.1260047,33.7080754 9.84298373,14.1232424 23.4898991,10.3461823 L26.6303607,10.3461823 C12.4188,14.1232424 12.1360118,33.7080754 25.7824617,37.4846741" id="Fill-3" fill="#004B86"></path>
                <path d="M28.9922821,38.6454781 L27.5473857,38.6454781 C13.3358251,34.8674952 13.0528041,15.2840464 26.6994867,11.5065249 L29.8404138,11.5065249 C15.6286204,15.2840464 15.3458322,34.8674952 28.9922821,38.6454781" id="Fill-5" fill="#004B86"></path>
                <path d="M4.4065148,37.881668 C4.16538842,37.6527972 3.92402929,37.4248493 3.68290291,37.1952864 C6.31783705,26.8315004 4.79497034,16.8950014 0.0390084765,9.57228989 C0.919492166,8.73755753 1.79997586,7.90213301 2.68069229,7.06740065 C7.30515183,16.2120805 8.02643625,27.2961635 4.4065148,37.881668" id="Fill-7" fill="#009D49"></path>
                <path d="M5.41966455,38.8419332 C5.17853817,38.6139853 4.93764454,38.3853453 4.69651816,38.156013 C8.71141206,27.4823748 8.31108641,15.9382431 3.73829681,6.06380687 C4.61901325,5.2288438 5.49903144,4.39434215 6.37904964,3.55960979 C10.8198714,15.2555529 10.4190803,27.9468071 5.41966455,38.8419332" id="Fill-9" fill="#009D49"></path>
                <path d="M6.43260483,39.8030983 C6.19078021,39.5733046 5.94988657,39.3448953 5.70852744,39.115563 C11.1012864,28.1334568 11.8223381,14.982846 7.43411721,2.55899226 C8.31483364,1.72356774 9.19555008,0.888604668 10.0762665,0.0527187243 C14.3336833,14.299233 12.8110493,28.5981199 6.43260483,39.8030983" id="Fill-11" fill="#009D49"></path>
            </g>
        </g>
    </g>
</svg>