<svg version="1.2" xmlns="http://www.w3.org/2000/svg" viewBox="0 0 328 102" width="150" height="102" class="logo">
  <style>
    .s0 {
  fill: #a0a0a0
}

.s1 {
  fill: #4990e2
}

.s2 {
  fill: #ffffff
}
  </style>
  <title>logo</title>
  <g id="Page-1">
    <g id="VTK-js-favicon">
      <path id="JS" fill-rule="evenodd" class="s0"
        d="m283 28.5h-13.5l-6.6 37.7q-0.6 3.7-2.1 6.2-1.6 2.5-5.1 2.5-2.3 0-3.6-1.5-1.4-1.5-1.7-3.7l-12.4 4q1.3 6.1 5.9 9.7 4.6 3.6 11.9 3.6 5.7 0 9.4-1.9 3.7-2 5.9-5 2.3-3 3.4-6.7 1.1-3.7 1.8-7.2zm47 5.8q-1.4-1.7-3.4-3.1-2-1.4-4.4-2.3-2.4-0.9-5-1.4-2.5-0.5-5-0.5-4.8 0-8.9 1.3-4.2 1.4-7.4 3.8-3.1 2.5-4.9 6-1.8 3.5-1.8 7.8 0 3.5 1.1 5.9 1 2.5 2.9 4.3 1.8 1.7 4.2 2.9 2.5 1.2 5.3 2.2 4 1.4 6.4 3.1 2.4 1.7 2.4 4.7 0 1.9-0.7 3.2-0.8 1.3-2.1 2.2-1.3 0.8-2.9 1.2-1.7 0.3-3.4 0.3-3.4 0-6.7-1.6-3.3-1.6-5-4.2l-9.9 8.1q1.7 2.1 4.1 3.8 2.4 1.7 5.2 2.8 2.9 1.1 5.9 1.7 3.1 0.5 6.1 0.5 4.1 0 8.3-1 4.2-1.1 7.6-3.4 3.3-2.3 5.5-5.9 2.1-3.6 2.1-8.7 0-3.3-1-5.8-1.1-2.5-3.1-4.5-2-2-4.9-3.6-2.9-1.6-6.6-2.9-3.4-1.2-5.3-2.6-1.8-1.4-1.8-3.8 0-1.9 0.8-3.1 0.8-1.3 2.1-2.2 1.2-0.8 2.8-1.2 1.5-0.3 2.9-0.3 2.9 0 5.3 1.1 2.5 1.1 4.1 3.3z" />
      <path id="Oval-47" fill-rule="evenodd" class="s0"
        d="m213 87c-5.5 0-10-4.5-10-10 0-5.5 4.5-10 10-10 5.5 0 10 4.5 10 10 0 5.5-4.5 10-10 10z" />
      <g id="Group">
        <path id="Path-94" fill-rule="evenodd" class="s1"
          d="m4.8 0l20.5 86.1h22.5l34.2-71.4h-21.2l-20.9 44.3-14.6-59z" />
        <path id="Path-95" fill-rule="evenodd" class="s1"
          d="m85.7 14.3h50.4l-8.1 16.6h-17.2l-9.7 54.6h-18.5l9.6-54.6h-14.2z" />
        <path id="Path-96" fill-rule="evenodd" class="s1"
          d="m138.4 14.3l16 0.1-4.4 25h2.4l16.9-25.1h20.9l-22.4 33.4 13.2 54.1h-20.9l-10.7-44.4h-2.3l-5.1 28.1h-21l9.7-55z" />
        <path id="Path-99" fill-rule="evenodd" class="s2" d="m0 0h3.2l20.8 85.9h-3.1z" />
        <path id="Path-100" fill-rule="evenodd" class="s2" d="m55.1 14.3h2.8l-17.2 35.9-0.9-3.9z" />
        <path id="Path-101" fill-rule="evenodd" class="s2" d="m85.6 33.5h2.9l-9.2 52.1h-2.9z" />
        <path id="Path-102" fill-rule="evenodd" class="s2" d="m123.8 33.5h2.9l-9.2 52h-2.9z" />
        <path id="Path-103" fill-rule="evenodd" class="s2" d="m163.4 14.3h3.6l-12.6 18.9 1.3-7.5z" />
        <path id="Path-104" fill-rule="evenodd" class="s2" d="m147.9 63.8l8.9 37.6h-3.3l-7.1-29.1z" />
      </g>
    </g>
  </g>
</svg>
