<?xml version="1.0" encoding="UTF-8" standalone="no"?>
<svg width="196px" height="196px" viewBox="0 0 196 196" version="1.1" xmlns="http://www.w3.org/2000/svg" xmlns:xlink="http://www.w3.org/1999/xlink">
    <!-- Generator: Sketch 3.7.2 (28276) - http://www.bohemiancoding.com/sketch -->
    <title>VTK-js favicon-logo</title>
    <desc>Created with Sketch.</desc>
    <defs></defs>
    <g id="Page-1" stroke="none" stroke-width="1" fill="none" fill-rule="evenodd">
        <g id="VTK-js-favicon">
            <path d="M90.2841823,152.24933 C89.8552257,154.554971 89.2654193,156.941006 88.5147453,159.407507 C87.7640713,161.874007 86.6380772,164.11259 85.1367292,166.123324 C83.6353812,168.134058 81.6514869,169.782835 79.1849866,171.069705 C76.7184863,172.356575 73.5817885,173 69.7747989,173 C64.895418,173 60.9276292,171.806982 57.8713137,169.420912 C54.8149981,167.034841 52.8579131,163.80431 52,159.729223 L64.386059,155.707775 C64.6005373,157.155503 65.1635343,158.388735 66.075067,159.407507 C66.9865997,160.426279 68.193022,160.935657 69.69437,160.935657 C72.0536311,160.935657 73.7426223,160.104566 74.7613941,158.442359 C75.780166,156.780153 76.5040193,154.689021 76.9329759,152.168901 L83.5281501,114.52815 L97.0402145,114.52815 L90.2841823,152.24933 Z M134.922252,128.36193 C133.849861,126.914202 132.509391,125.815017 130.900804,125.064343 C129.292217,124.313669 127.495988,123.938338 125.512064,123.938338 C124.600532,123.938338 123.635394,124.05898 122.616622,124.300268 C121.59785,124.541556 120.672926,124.943697 119.841823,125.506702 C119.01072,126.069708 118.313676,126.780157 117.75067,127.63807 C117.187665,128.495983 116.906166,129.541549 116.906166,130.774799 C116.906166,132.383386 117.536187,133.656832 118.796247,134.595174 C120.056307,135.533517 121.812321,136.404822 124.064343,137.209115 C126.530843,138.067028 128.729213,139.018762 130.659517,140.064343 C132.589822,141.109925 134.225194,142.302942 135.565684,143.643432 C136.906173,144.983921 137.924929,146.498651 138.621984,148.187668 C139.319038,149.876684 139.66756,151.793555 139.66756,153.938338 C139.66756,157.36999 138.957112,160.292213 137.536193,162.705094 C136.115274,165.117975 134.278832,167.088464 132.02681,168.616622 C129.774788,170.14478 127.254706,171.257369 124.466488,171.954424 C121.67827,172.651478 118.916904,173 116.182306,173 C114.144762,173 112.107249,172.812334 110.069705,172.436997 C108.032161,172.06166 106.075076,171.512068 104.198391,170.788204 C102.321706,170.06434 100.579097,169.139416 98.9705094,168.013405 C97.3619223,166.887394 95.9946437,165.600543 94.8686327,164.152815 L104.761394,156.10992 C105.887405,157.825746 107.549587,159.219834 109.747989,160.292225 C111.946392,161.364617 114.171571,161.900804 116.423592,161.900804 C117.603223,161.900804 118.742622,161.780162 119.841823,161.538874 C120.941024,161.297586 121.919567,160.895445 122.77748,160.33244 C123.635393,159.769434 124.319032,159.045581 124.828418,158.160858 C125.337804,157.276135 125.592493,156.217164 125.592493,154.983914 C125.592493,152.99999 124.788212,151.431641 123.179625,150.27882 C121.571038,149.126 119.426287,148.093838 116.745308,147.182306 C114.868623,146.538871 113.112609,145.815017 111.477212,145.010724 C109.841815,144.20643 108.420918,143.214483 107.214477,142.034853 C106.008037,140.855222 105.042899,139.447729 104.319035,137.812332 C103.595171,136.176936 103.233244,134.206446 103.233244,131.900804 C103.233244,129.005347 103.836455,126.391433 105.042895,124.058981 C106.249336,121.72653 107.898113,119.742636 109.989276,118.107239 C112.080439,116.471842 114.520093,115.211801 117.308311,114.327078 C120.096529,113.442355 123.07237,113 126.235925,113 C127.898132,113 129.587123,113.160856 131.302949,113.482574 C133.018775,113.804291 134.667552,114.273455 136.24933,114.89008 C137.831107,115.506705 139.292218,116.270773 140.632708,117.182306 C141.973197,118.093838 143.099191,119.139404 144.010724,120.319035 L134.922252,128.36193 Z" id="JS" fill="#A0A0A0"></path>
            <g id="Group" transform="translate(3.000000, 11.000000)">
                <polygon id="Path-94" fill="#4990E2" points="4.775 2.08166817e-17 25.2581621 86.0686648 47.787502 86.0686648 82.02727 14.6613142 60.8423667 14.6613142 39.9088237 59.0295346 25.2581621 2.08166817e-17"></polygon>
                <polygon id="Path-95" fill="#4990E2" points="85.6632012 14.34375 136.139081 14.34375 128.046342 30.9059381 110.800052 30.8572018 101.147921 85.4767478 82.6093142 85.476745 92.1809484 30.9415527 77.9916667 30.941553"></polygon>
                <polygon id="Path-96" fill="#4990E2" points="138.366196 14.34375 154.438082 14.4095874 150.024108 39.3972074 152.411743 39.3972071 169.267998 14.34375 190.243337 14.34375 167.800877 47.7472529 181.003613 101.809731 160.064138 101.809731 149.412421 57.3801274 147.116438 57.3801274 141.991155 85.515305 120.966667 85.5153071 130.730408 30.4719174"></polygon>
                <polygon id="Path-99" fill="#FFFFFF" points="0 0 3.18219711 0 24.0460481 85.9443963 20.8593586 85.9443963"></polygon>
                <polygon id="Path-100" fill="#FFFFFF" points="55.1015241 14.34375 57.8898582 14.34375 40.7465157 50.155281 39.7916667 46.2891617"></polygon>
                <polygon id="Path-101" fill="#FFFFFF" points="85.6083812 33.46875 88.4914675 33.46875 79.3341428 85.5648665 76.4 85.5648665"></polygon>
                <polygon id="Path-102" fill="#FFFFFF" points="123.785174 33.46875 126.709319 33.46875 117.522718 85.5149889 114.6 85.5149889"></polygon>
                <polygon id="Path-103" fill="#FFFFFF" points="163.380379 14.34375 166.974353 14.34375 154.391667 33.1982334 155.708346 25.6525344"></polygon>
                <polygon id="Path-104" fill="#FFFFFF" points="147.901937 63.75 156.818933 101.362589 153.508047 101.36259 146.433333 72.2903275"></polygon>
            </g>
            <circle id="Oval-47" fill="#A0A0A0" cx="27" cy="163" r="10"></circle>
        </g>
    </g>
</svg>