<?xml version="1.0" encoding="UTF-8" standalone="no"?>
<svg width="187px" height="78px" viewBox="0 0 187 78" version="1.1" xmlns="http://www.w3.org/2000/svg" xmlns:xlink="http://www.w3.org/1999/xlink">
    <!-- Generator: Sketch 3.7.2 (28276) - http://www.bohemiancoding.com/sketch -->
    <title>VTK-JS</title>
    <desc>Created with Sketch.</desc>
    <defs></defs>
    <g id="Page-1" stroke="none" stroke-width="1" fill="none" fill-rule="evenodd">
        <g id="VTK-JS">
            <polygon id="Path-94" fill="#1C4678" points="6 7 18.8690023 61.0038681 33.0235615 61.0038681 54.5354576 16.1992559 41.2255707 16.1992559 28.0736065 44.0381393 18.8690023 7"></polygon>
            <polygon id="Path-95" fill="#1C4678" points="56.8198123 16 88.5324068 16 83.4479633 26.3919611 72.6125982 26.3613815 66.5484324 60.6324692 54.9011398 60.6324675 60.914732 26.4143076 52 26.4143077"></polygon>
            <polygon id="Path-96" fill="#1C4678" points="89.9316416 16 100.029161 16.0413097 97.2559841 31.7198164 98.7560692 31.7198162 109.346386 16 122.524609 16 108.424635 36.9590607 116.719547 70.8806152 103.563856 70.8806152 96.8716783 43.0032172 95.4291756 43.0032172 92.2091026 60.656662 79 60.6566633 85.1342877 26.1196344"></polygon>
            <path d="M151.33244,58.8954424 C151.082215,60.2403999 150.738161,61.6322538 150.300268,63.0710456 C149.862375,64.5098374 149.205545,65.8156778 148.329759,66.9886059 C147.453972,68.161534 146.296701,69.1233206 144.857909,69.8739946 C143.419117,70.6246686 141.589377,71 139.368633,71 C136.522327,71 134.207784,70.3040731 132.424933,68.9121984 C130.642082,67.5203237 129.500449,65.6358475 129,63.2587131 L136.225201,60.9128686 C136.350313,61.7573769 136.678728,62.476762 137.210456,63.0710456 C137.742183,63.6653292 138.445929,63.9624665 139.321716,63.9624665 C140.697951,63.9624665 141.683196,63.4776635 142.27748,62.5080429 C142.871763,61.5384223 143.294011,60.3185954 143.544236,58.8485255 L147.391421,36.8914209 L155.273458,36.8914209 L151.33244,58.8954424 Z M177.371314,44.961126 C176.745752,44.1166178 175.963812,43.4754267 175.025469,43.0375335 C174.087127,42.5996403 173.039327,42.3806971 171.882038,42.3806971 C171.35031,42.3806971 170.787313,42.4510717 170.193029,42.5918231 C169.598746,42.7325744 169.059207,42.9671565 168.574397,43.2955764 C168.089586,43.6239963 167.682978,44.0384247 167.354558,44.538874 C167.026138,45.0393233 166.86193,45.6492368 166.86193,46.3686327 C166.86193,47.3069752 167.229442,48.0498185 167.964477,48.597185 C168.699512,49.1445514 169.723854,49.6528127 171.037534,50.1219839 C172.476325,50.6224332 173.758708,51.1776109 174.884718,51.7875335 C176.010729,52.3974561 176.964697,53.093383 177.746649,53.8753351 C178.528601,54.6572872 179.122876,55.5408798 179.529491,56.5261394 C179.936106,57.511399 180.13941,58.6295737 180.13941,59.8806971 C180.13941,61.8824944 179.724982,63.5871243 178.896113,64.9946381 C178.067243,66.4021518 176.995985,67.5516041 175.682306,68.4430295 C174.368626,69.3344549 172.898578,69.9834653 171.272118,70.3900804 C169.645658,70.7966955 168.034861,71 166.439678,71 C165.251111,71 164.062562,70.8905284 162.873995,70.6715818 C161.685427,70.4526352 160.543795,70.1320396 159.449062,69.7097855 C158.354329,69.2875314 157.337806,68.7479926 156.399464,68.0911528 C155.461121,67.4343131 154.663542,66.6836503 154.006702,65.8391421 L159.77748,61.1474531 C160.43432,62.1483517 161.403926,62.9615697 162.686327,63.5871314 C163.968728,64.212693 165.266749,64.5254692 166.580429,64.5254692 C167.268547,64.5254692 167.933196,64.4550945 168.574397,64.3143432 C169.215597,64.1735918 169.786414,63.9390097 170.286863,63.6105898 C170.787313,63.2821699 171.186102,62.8599222 171.483244,62.3438338 C171.780386,61.8277454 171.928954,61.2100125 171.928954,60.4906166 C171.928954,59.3333275 171.45979,58.4184573 170.521448,57.7459786 C169.583105,57.0734998 168.332001,56.4714057 166.768097,55.9396783 C165.673364,55.5643413 164.649022,55.1420935 163.69504,54.6729223 C162.741059,54.203751 161.912202,53.6251151 161.208445,52.9369973 C160.504688,52.2488795 159.941691,51.4278421 159.519437,50.4738606 C159.097183,49.5198791 158.886059,48.3704267 158.886059,47.0254692 C158.886059,45.3364527 159.237932,43.811669 159.941689,42.4510724 C160.645446,41.0904758 161.607233,39.9332041 162.827078,38.9792225 C164.046923,38.025241 165.470054,37.2902171 167.096515,36.7741287 C168.722975,36.2580403 170.458883,36 172.30429,36 C173.27391,36 174.259155,36.0938328 175.260054,36.2815013 C176.260952,36.4691698 177.222739,36.742849 178.145442,37.1025469 C179.068146,37.4622449 179.920461,37.9079509 180.702413,38.4396783 C181.484365,38.9714057 182.141195,39.5813192 182.672922,40.269437 L177.371314,44.961126 Z" id="JS" fill="#8A8B8A"></path>
            <rect id="Rectangle-134" fill="#1C4678" transform="translate(122.363961, 54.363961) rotate(-315.000000) translate(-122.363961, -54.363961) " x="117.863961" y="49.863961" width="9" height="9" rx="86"></rect>
            <polygon id="Path-99" fill="#8A8B8A" points="3.04888041 6.97355216 5.04816655 6.97355216 18.1563452 60.8994479 16.1542366 60.8994479"></polygon>
            <polygon id="Path-100" fill="#8A8B8A" points="38.2037434 16.2127622 39.9555764 16.2127622 29.18489 38.6827424 28.5849848 36.2569421"></polygon>
            <polygon id="Path-101" fill="#8A8B8A" points="57.0563677 28.1752424 58.8677308 28.1752424 53.1144378 60.8630018 51.2709973 60.8630018"></polygon>
            <polygon id="Path-102" fill="#8A8B8A" points="81.6389763 28.1983471 83.4761359 28.1983471 77.704449 60.8548108 75.8681866 60.8548108"></polygon>
            <polygon id="Path-103" fill="#8A8B8A" points="105.765912 16.1952213 108.023907 16.1952213 100.118554 28.0254854 100.945787 23.2909292"></polygon>
            <polygon id="Path-104" fill="#8A8B8A" points="96.6457955 47.6174331 102.248097 71.2174888 100.167959 71.2174896 95.7231123 52.97607"></polygon>
        </g>
    </g>
</svg>